<svg width="90" height="90" viewBox="0 0 90 90" fill="none" xmlns="http://www.w3.org/2000/svg">
<g clip-path="url(#clip0_5_5)">
<rect width="90" height="90" rx="8" fill="white"/>
<rect width="42" height="34" transform="translate(10)" fill="black"/>
<ellipse cx="31" cy="33" rx="21" ry="25" fill="black"/>
<rect x="55" y="13" width="9" height="16" fill="white"/>
<path d="M8 0H58V10H8V0Z" fill="white"/>
<path d="M28.7841 36.2727H79.6932L54.2386 79.5455L28.7841 36.2727Z" fill="black"/>
<path d="M28.7841 36.2727V34.2727H25.2873L27.0602 37.2868L28.7841 36.2727ZM79.6932 36.2727L81.4171 37.2868L83.19 34.2727H79.6932V36.2727ZM54.2386 79.5455L52.5148 80.5595L54.2386 83.4901L55.9625 80.5595L54.2386 79.5455ZM28.7841 38.2727H79.6932V34.2727H28.7841V38.2727ZM77.9693 35.2587L52.5148 78.5314L55.9625 80.5595L81.4171 37.2868L77.9693 35.2587ZM55.9625 78.5314L30.508 35.2587L27.0602 37.2868L52.5148 80.5595L55.9625 78.5314Z" fill="white"/>
</g>
<defs>
<clipPath id="clip0_5_5">
<rect width="90" height="90" fill="white"/>
</clipPath>
</defs>
</svg>
